<?xml version="1.0" standalone="no"?>
<!DOCTYPE svg PUBLIC "-//W3C//DTD SVG 1.0//EN" "http://www.w3.org/TR/2001/REC-SVG-20010904/DTD/svg10.dtd">
<svg xmlns="http://www.w3.org/2000/svg" xmlns:xlink="http://www.w3.org/1999/xlink" id="body_1" width="640" height="480">

<defs>
    <clipPath  id="1">

    <path id=""  clip-rule="evenodd" transform="matrix(1 0 0 1 0 0)"  d="M0 360L0 0L0 0L480 0L480 0L480 360L480 360L0 360z" />    </clipPath>
</defs>

<g transform="matrix(1.3333 0 0 1.3333 0 0)">
	<g clip-path="url(#1)" >
    <path id=""  transform="matrix(1 0 0 -1 0 360)"  d="M158.71439 348.26846C 55.62906 350.12183 -39.764526 188.90753 238.15869 21.76294L238.15869 21.76294L238.15869 21.76294C 238.46341 22.31128 239.63528 22.31128 239.93997 21.76294L239.93997 21.76294L239.93997 21.76294C 526.8285 194.29944 415.9388 360.49304 309.40924 347.55588L309.40924 347.55588L309.40924 347.55588C 267.8797 342.5125 248.28174 319.46353 239.04929 299.6399L239.04929 299.6399L239.04929 299.6399C 229.8169 319.46353 210.21887 342.5125 168.68948 347.55588L168.68948 347.55588L168.68948 347.55588C 165.3604 347.96033 162.03976 348.20853 158.71439 348.26843L158.71439 348.26843L158.71439 348.26843z" stroke="#BFBFBF" stroke-width="9" fill="#BFBFBF" fill-rule="evenodd" />
	</g>
</g>
</svg>